<svg aria-hidden="true" style="position: absolute; width: 0; height: 0; overflow: hidden;" version="1.1" xmlns="http://www.w3.org/2000/svg" xmlns:xlink="http://www.w3.org/1999/xlink">
<defs>
<symbol id="icon-menu-burger-1" viewBox="0 0 48 32">
<path fill="#e5e5e5" style="fill: var(--color1, #e5e5e5)" d="M0 0h48v32h-48v-32z"></path>
<path fill="#fff" style="fill: var(--color2, #fff)" d="M-562-62h640v9916h-640v-9916z"></path>
<path fill="#f2f3f6" style="fill: var(--color3, #f2f3f6)" d="M-562-62h640v1566h-640v-1566z"></path>
<path fill="#111238" style="fill: var(--color4, #111238)" d="M46 14h-44c-1.105 0-2 0.895-2 2s0.895 2 2 2h44c1.105 0 2-0.895 2-2s-0.895-2-2-2z"></path>
<path fill="#111238" style="fill: var(--color4, #111238)" d="M46 0h-44c-1.105 0-2 0.895-2 2s0.895 2 2 2h44c1.105 0 2-0.895 2-2s-0.895-2-2-2z"></path>
<path fill="#111238" style="fill: var(--color4, #111238)" d="M46 28h-44c-1.105 0-2 0.895-2 2s0.895 2 2 2h44c1.105 0 2-0.895 2-2s-0.895-2-2-2z"></path>
</symbol>
<symbol id="icon-logo-image" viewBox="0 0 32 32">
<path fill="#0f1138" style="fill: var(--color5, #0f1138)" d="M30.139 0.033c-0.009 0.002-0.018 0.005-0.027 0.007-0.002 0.001-0.005 0.001-0.007 0.002l-29.459 9.142c-0.383 0.119-0.645 0.473-0.645 0.875s0.26 0.757 0.643 0.877l11.359 3.566-2.146 5.756c-0.125 0.336-0.043 0.715 0.211 0.969s0.633 0.336 0.969 0.211l5.756-2.146 3.567 11.359c0.12 0.382 0.474 0.643 0.875 0.643 0 0 0.001 0 0.002 0 0.401-0.001 0.756-0.262 0.875-0.645l9.142-29.46c0.001-0.002 0.001-0.005 0.002-0.007 0.003-0.009 0.005-0.018 0.007-0.026 0.185-0.687-0.446-1.306-1.123-1.124zM3.996 10.065l21.652-6.719-12.625 9.554-9.027-2.834zM12.276 19.018l1.689-4.531 11.683-8.84-8.841 11.683-4.531 1.689zM21.229 27.299l-2.834-9.027 9.554-12.625-6.719 21.652z"></path>
<path fill="#1a75e8" style="fill: var(--color6, #1a75e8)" d="M7.289 18.817c-0.358-0.358-0.939-0.358-1.297 0l-5.504 5.504c-0.358 0.358-0.358 0.939 0 1.297s0.939 0.358 1.297 0l5.504-5.504c0.358-0.358 0.358-0.939 0-1.297z"></path>
<path fill="#1a75e8" style="fill: var(--color6, #1a75e8)" d="M12.478 24.006c-0.358-0.358-0.939-0.358-1.297 0l-5.504 5.504c-0.358 0.358-0.358 0.939 0 1.297s0.939 0.358 1.297 0l5.504-5.504c0.358-0.358 0.358-0.939 0-1.297z"></path>
<path fill="#1a75e8" style="fill: var(--color6, #1a75e8)" d="M8.049 23.246c-0.358-0.358-0.939-0.358-1.297 0l-6.483 6.483c-0.358 0.358-0.358 0.939 0 1.297s0.939 0.358 1.297 0l6.483-6.483c0.358-0.358 0.358-0.939 0-1.297z"></path>
</symbol>
<symbol id="icon-search" viewBox="0 0 34 32">
<path fill="#fff" style="fill: var(--color1, #fff)" d="M32.22 29.742l-7.952-7.952c2.167-2.65 3.232-6.032 2.976-9.446s-1.815-6.599-4.354-8.895c-2.539-2.297-5.863-3.53-9.286-3.444s-6.681 1.483-9.102 3.904c-2.421 2.421-3.819 5.679-3.904 9.102s1.148 6.747 3.444 9.286c2.297 2.539 5.482 4.098 8.895 4.354s6.796-0.809 9.446-2.976l7.952 7.952c0.251 0.243 0.588 0.377 0.937 0.374s0.683-0.143 0.93-0.39 0.387-0.581 0.39-0.931c0.003-0.349-0.131-0.686-0.374-0.937zM13.959 24.023c-2.108 0-4.169-0.625-5.921-1.796s-3.119-2.836-3.925-4.783-1.018-4.090-0.607-6.158c0.411-2.067 1.426-3.966 2.917-5.457s3.39-2.506 5.457-2.917c2.067-0.411 4.21-0.2 6.158 0.607s3.612 2.173 4.783 3.925c1.171 1.753 1.796 3.813 1.796 5.921-0.003 2.826-1.127 5.535-3.125 7.533s-4.707 3.122-7.533 3.125z"></path>
</symbol>
</defs>
</svg>
